<?xml version="1.0" encoding="UTF-8"?>
<svg version="1.1" viewBox="0 0 1600 1600" width="40" height="40" xmlns="http://www.w3.org/2000/svg">
<path transform="translate(339,180)" d="m0 0h987l20 3 17 5 16 8 12 9 12 14 8 14 5 12 3 13 1 9v996l-2 14-5 17-10 18-9 11-10 10-15 10-16 7-17 4-8 1h-996l-27-3-13-4-14-7-12-9-9-9-9-12-9-16-5-12-4-18-1-25v-973l3-15 6-16 8-14 11-13 9-9 11-7 13-6 16-4 13-2z" fill="#FBFCFC"/>
<path transform="translate(1312,352)" d="m0 0 2 4 3 21 3 25 1 23 2 43 3 71 2 58 1 24 1 16 2 17 3 5 2 6 4 2 1 5 2 1 1-3 8 1 7-2 1 2-1 4 4-2v-5l7-1 5-1 3-1 1-2 6-1 2 3 5-1 7 1 3 4h2v2l4 2 4 4 4 9 2-11h1v588l-2 14-5 17-10 18-9 11-10 10-15 10-16 7-17 4-8 1h-996l-27-3-13-4-14-7-12-9-9-9-9-12-9-16-5-12-4-18v-402l1-196h1l1 22 1-15 5-21h2l3 3 6 2 6-1 6 3 2 2 1 2 11 6 2 1v-2h3v-2l4 1 3 2h7l7 1 9-1 3-3 5-2 4-8 4-40 2-17 3-34 2-10 2 1 1 626 3 16 6 16 8 11 7 7 14 10 14 5 7 2h856l15-5 15-8 12-9 6-10 5-10 3-9 2-13 1-2z" fill="#364249"/>
<path transform="translate(339,180)" d="m0 0h987l20 3 17 5 16 8 12 9 12 14 8 14 5 12 3 13 1 9v408l-2 11-2 1-5-11v-2l-6-3v-2l-3 1-2-4-9-1-4 1-2-3h-5l-1 3-7 1-3 1-4 1-1 5-4 1v-5l-10 2-5-1-1 2-4-2 1-4-5-2-4-9-1-4-2-15-1-17-1-29-2-52-3-71-2-43-1-23-3-25-3-21-1 828h-1l-1-844-3-12-4-11-6-10-8-7-9-6-13-5-9-3-7-1h-850l-15 2-13 5-10 7-4 2v3l-5 5-5 4-7 14-3 9-1 6-1 841h-1l-1-626-2 9-3 38-3 23-3 30-5 9-7 2-1 3-10 1-13-1-7-4v2h-3v2l-6-2-9-6-1-2-6-3-7 1-8-4v-2h-2l-1 8-3 14-1 15-2-2-1 175-1 377h-1v-973l3-15 6-16 8-14 11-13 9-9 11-7 13-6 16-4 13-2z" fill="#BCD7E7"/>
<path transform="translate(1169,578)" d="m0 0h2v384l-5-2-20-10-19-10-2-1v-2l-5-1-6-2-1 4-7 9-1 2h-2l-2 6-2 4-2 2-5 2-8 4-10 4-8 5-5 1v2l-10 6-11 6-13 8-9 5-10 6-6 3-6 2v2l-8 4-16 9-10 5-7 4-18 10-11 6-45 27-21 12-28 14h-2v-43l9-6 18-10 21-12 16-8 16-9 9-5 10-6 1-2-7 1-9 3-9 2-1 1h-6l-4-4h6l-11-5-2-1h-6l-3-1h-5v-1l-21-2-12-5-8-1-1-2-2-28-2-6-11-5-27-7-17-8-16-8-17-8-38-20-15-10-11-10-5-5v-2l-4-2-2-3-1-4-4-4-2-4-3-2-1-5 1-4-5 2-16 9-14 9-26 15-24 14-8 5h-1v-165l3-1v-4l-2-1-1-4 5 2 11 7 29 16 24 13 19 9 17 10 29 16 14 8 9 6 11 6 10 5 9 5 19 10 15 8 46 25 5-25 4-11 9-15 9-11 6-7h2l2-4 4-3h2v-2l21-14 11-7 10-6 16-8 16-9 12-6 19-12 26-15 18-10 16-9 19-10 21-12 4-1v67l5-2 2-4 2-2 6 1 9 8 5 1 2 4v3l2 1-1 2 2 1 2 4 2 1v-32l1-100 1-22 10-5 23-13 16-9z" fill="#C6CDCF"/>
<path transform="translate(827,484)" d="m0 0 3 1 1 59 10 6 30 15 21 9 23 12 19 10 22 11 1 1 4 20 7 20 6 11 8 8 11 7 10 4h39l17-3 10-3h10v3l-17 9-21 12-21 11-17 10-25 14-19 12-12 7-12 6-14 8-12 6-10 6-19 12-8 6h-2v2l-7 5-7 8-8 9-11 18-4 11-4 18-1 8-16-8-30-16-5-3-20-11-10-5-11-6-16-9-9-5-14-8-23-13-25-14-16-8-25-13-18-10-21-12-8-6-8-2-10-6-4-4 1-4 13-8 11-7 17-11 16-10 14-8 28-17 21-12 26-13 9-6 15-9 22-13 26-15 15-9 23-12 16-9 7-4 3-2 1-13 1-39z" fill="#FCFCFC"/>
<path transform="translate(560,726)" d="m0 0 5 2 11 7 29 16 24 13 19 9 17 10 29 16 14 8 9 6 11 6 10 5 9 5 19 10 15 8 46 25 5-25 4-11 9-15 9-11 6-7h2l2-4 4-3h2v-2l21-14 11-7 10-6 16-8 16-9 12-6 16-10 3 1v3l-1 9 1 2v17l-1 10 3 15 3 5v2h2l7 9 4 3v2l5 2 9 6 5 3v2l6 3v2l4 1 4 3 5 3 15 8 10 3 10-1 7-8 3-10 2 4v54l-5-1v-2l-6-2-17-9-3 1 1 6-3 5-10 11-6 7-13 10-8 6-11 6-10 6-14 7-12 5-11 4-18 5-8 3-17 3-39 6h-24l-11-1-2-3-3-44-5-4-20-8-24-11-7-5-28-14v-2l-4-2-7-6-4-5-6-5-7-8-8-8v-2l-4-2-6-7-2-3-5 1-19 11-17 9-25 15-16 10-23 13-22 13-8 5h-1v-165l3-1v-4l-2-1z" fill="#A2AAAD"/>
<path transform="translate(239,292)" d="m0 0 7 1 13 3 10 1 22 2 5 2 12 2h8l14 4v2l10-2 3-2 10-1-2 7-6 9-6 16-1 6-1 841h-1l-1-626-2 9-3 38-3 23-3 30-5 9-7 2-1 3-10 1-13-1-7-4v2h-3v2l-6-2-9-6-1-2-6-3-7 1-8-4v-2h-2l-1 8-3 14-1 15-2-2-1 175-1 377h-1v-801l1-82 1-33 3-13 1-11 3-7z" fill="#9AAEB8"/>
<path transform="translate(1268,287)" d="m0 0 9 2 6 3 7 4 3 1 3 3 7 4v2l15 1 7-3 13-4 12-3 2-2h9l7-2h11l7-1h8l6 1 4-1 5 3 5 8 3 21 3 1v350l-2 11-2 1-5-11v-2l-6-3v-2l-3 1-2-4-9-1-4 1-2-3h-5l-1 3-7 1-3 1-4 1-1 5-4 1v-5l-10 2-5-1-1 2-4-2 1-4-5-2-4-9-1-4-2-15-1-17-1-29-2-52-3-71-2-43-1-23-3-25-3-21-1 828h-1l-1-844-3-12-4-11-6-10-8-7-9-6-12-6z" fill="#99ADB8"/>
<path transform="translate(334,556)" d="m0 0 2 1v297l-1 6-3 24-2 28-2 11-1 7-3 13-5 6-2 1-1 3-5 1-5 3-5-1-3 3-8 1-6-2-2 1v-2l-2 1h-6l-2-1-6 1h-7v2l-5 2-4-1-9-2v-2h-6l-1 14h-1l-1-13-1 307h-1v-402l1-196h1l1 22 1-15 5-21h2l3 3 6 2 6-1 6 3 2 2 1 2 11 6 2 1v-2h3v-2l4 1 3 2h7l7 1 9-1 3-3 5-2 4-8 4-40 2-17 3-34z" fill="#5C6E78"/>
<path transform="translate(1312,352)" d="m0 0 2 4 3 21 3 25 1 23 2 43 3 71 2 58 1 24 1 16 2 17 3 5 2 6 4 2 1 5 2 1 1-3 8 1 7-2 1 2-1 4 4-2v-5l7-1 5-1 3-1 1-2 6-1 2 3 5-1 7 1 3 4h2v2l4 2 4 4 4 9 2-11h1v252l-1 25-5 6-9-2-9-1-4 2-10 3 1-6-6 4-3 3-1-2-5 2h-7v-2h-6l1 3-3 1-3-2v-3l-12-1-2-2-3-7-3-8-1-5-3-60-1-30-2-54v-20l-2-19-1-39-1-42-1-23-2-80-1-23-1-115-1-39-1-16z" fill="#657782"/>
<path transform="translate(1170,738)" d="m0 0h1l1 29 1 5h7l5 4 3 3v2l4 1 4 4 3 5 5 3 8 15 6 18 1 7-1 8 3 6v8l-1 2 1 18-2 6-1 12-4 9-2 16-6 13-4 12-5 6-7 13-9 8-6 8-8 8-19 12-13 8-10 7-16 8-13 8-11 6-23 12-11 6-18 11-14 7-18 10-23 11-46 23-22 12-27 14-22 12-25 12-8-1-4 1-18-8-14-8-12-6-22-12-28-15-17-9-16-8-15-8-21-10-16-8-26-14-23-13-15-8-36-18-22-12-20-11-12-9-11-8-3-7 1-5 5 1 6 3v2l6 2 25 13 9 5 22 12 8 4v2l6 2 26 14 11 5 9 4 16 9 7 4 12 8 11 6 13 7 12 6v2l6 2 17 10 16 8 13 7v2l9 3 4 2v2l5 1 6 3v2l5 2 8 3v2l5 2 7 3v2l6 2 16 9 22 11 4-1 22-14 12-7 45-27 22-12 17-9 11-6 10-6 1-6 7-3 3-2h4l1-3h3l1-2 7-2 8-4v-2l2-1-8 1-3 2h-8l-6-3-6-8-1-4 4-5 2-1v-4l-9 1 4-3 8-5 10-5h2v-2l6-3 9-5 11-6 26-16 11-6h2v-2l10-5 9-5 11-4 2-2 5-2 2-4 2-7 3 1 2-5 6-7 1-3h5l6 3v2l6 2 37 19 3 2-1-55z" fill="#E7ECEE"/>
<path transform="translate(972,734)" d="m0 0 3 1v3l-1 9 1 2v17l-1 10 3 15 3 5v2h2l7 9 4 3v2l5 2 9 6 5 3v2l6 3v2l4 1 4 3 5 3 15 8 10 3 10-1 7-8 3-10 2 4v54l-5-1v-2l-6-2-19-10-21-12-16-8-25-13h-3l3 7-2 9-6 12-6 7-3 4h-2l-2 4h-2l-2 5-8 6-5 3-4 4-9 4-10 3-12 6-5 2-19 4-14 5-20 4-9 1-12-1-3-3-2-46v-18l5-21 9-16 10-13 7-8h2l2-4 4-3h2v-2l21-14 11-7 10-6 16-8 16-9 12-6z" fill="#656D70"/>
<path transform="translate(1312,565)" d="m0 0h1l1 11 1 241 1 56 1 29v54l1 37v17l1 62v107l-3 24-3 11-5 11-3 7-7 11-3 1-2 4-10 8-16 7-12 4-16 2-21 1-56 1-58 1-250-1h-392l-19-1h-14l-14-1-18-2-14-4-6-4-7-5v-2l-3-1v-2h-2l-1-3-5-5-11-12-6-10-3-7-1-11h3l5 14 8 11 7 7 14 10 14 5 7 2h856l15-5 15-8 12-9 6-10 5-10 3-9 2-13 1-2z" fill="#1D2327"/>
<path transform="translate(1169,578)" d="m0 0h2v384l-5-2-20-10-19-10-2-1v-2l-5-1-1-1-1-18v-152l1-159 10-5 23-13 16-9z" fill="#A3AAAE"/>
<path transform="translate(468,593)" d="m0 0 6 2 7 4 6 2v2l9 3 3 3 6 2v2l6 2 7 4v321l-21 13-18 10-8 4h-3z" fill="#A3AAAE"/>
<path transform="translate(829,482)" d="m0 0 4 2 13 8 16 8 15 8 22 12 13 8 29 16 23 13 14 8 29 15 6 4 11 6 24 14 14 8 16 9v50l-17 4-8 2-11 2h-39l-12-5-11-8-7-7-7-14-7-20-3-17-40-20-22-12-31-14-28-14-5-4z" fill="#9AADB8"/>
<path transform="translate(821,388)" d="m0 0h2v48l-13 8-14 8-15 9-18 11-16 10-21 12-23 12-19 12-11 6-25 15-12 7-16 10-24 13-23 13-20 12-21 12-11 5-5-1-21-12-17-10-4-1v-2l25-14 8-5 12-6 10-6 11-6 24-14 7-5 11-6 14-8 10-6 12-6 22-12 9-6 6-3 23-13 18-10 11-7 23-13 16-8 14-8 11-6 28-16 20-12z" fill="#9AAEB9"/>
<path transform="translate(823,482)" d="m0 0h1v50l-1 13-8 6-14 7-33 18-24 14-26 15-20 12-11 7-10 6-12 5-23 13-23 14-35 21-17 11-6 4h-2v-61l2-5 11-6 26-15 18-10 17-10 11-7 21-12 23-12 18-11 15-9 21-12 23-14 17-10 23-12z" fill="#9AAEB9"/>
<path transform="translate(830,389)" d="m0 0 5 2 9 5v2l6 2 27 15 12 6v2l5 2 11 6 17 9 14 7 8 5 5 2 4 3 4 1v2l5 2 9 5 17 10 5 2 4 3 4 1v2l9 3 9 5v2l9 3 6 3v2l9 3 24 13 10 6 14 8 6 3 1 2 5 2 21 12 26 14 14 7-2 3-7 2-1 3-8 3-16 9-7 3-3 2h-5l-28-17-25-13-16-8-48-28-24-13-14-9-16-8-19-10-23-13-17-10-22-12-23-13-10-7z" fill="#9AAEB9"/>
<path transform="translate(1312,362)" d="m0 0h1l1 6 3 70 3 87 1 46 2 46 2 60 3 75 1 34 2 28 6 2 5 4 8 1 9-1h8l2-3 11-2 1 2 5-2 4-4 2 3 1 2 11-1 3 3v2h3l2 3v3l5-1 2-18h1v120l-1 25-5 6-9-2-9-1-4 2-10 3 1-6-6 4-3 3-1-2-5 2h-7v-2h-6l1 3-3 1-3-2v-3l-12-1-2-2-3-7-3-8-1-5-3-60-1-30-2-54v-20l-2-19-1-39-1-42-1-23-2-80-1-23-1-115-1-39-1-16z" fill="#5B6D77"/>
<path transform="translate(693,823)" d="m0 0 4 1 6 8 5 4 7 8 5 5v2l3 1 4 5 6 5 5 5 6 5v2l4 1 16 8 14 8 30 14 17 7 4 4 3 44 2 2 10 1h24l33-5 23-4 14-5 19-5 13-6 9-4 15-8 14-8 5-4 13-10 7-6 9-11 4-4 1-4-1-7 6 1 19 10-2 1-1 8-3 7-11 13-8 6-7 8-5 3h-2l-2 4-11 7-9 3-19 6-14 4-21 7-30 6-16 2-10 2-21 2-5 1-17 1h-7l-18-3-3-7-2-6-11-5-27-7-17-8-16-8-17-8-38-20-15-10-11-10-5-5v-2l-4-2-2-3-1-4-4-4-2-4-3-2-1-5 2-7 23-12z" fill="#C6CDCF"/>
<path transform="translate(1075,676)" d="m0 0h3v157h-2l-3 8-7 7-10 1-10-3-15-8-5-3-5-4-3-1v-2l-6-3v-2l-5-2-10-7-4-2v-2l-4-2-7-8v-2h-2l-4-7-3-15 1-12v-15l-1-3 1-8-1-5 46-26 16-9 19-10z" fill="#A2A9AD"/>
<path transform="translate(335,854)" d="m0 0h1v68l-1 22-1 7-4 70-1 6v14h-2l1 5-2 12-2 5-1 7-6 4-5 5-3 2h-5l-2 4-1-3-1-1-2 3h-2l-1 2-6 3-5 2-5-4h-8l-2-3h-5l-1 2-3-1v-2h-3v-3l-10 3h-2l-4 1v-3l-5 1-2 12h-1l-1-20-1-100v-89h1l1 73 1 6 1-7h6v2l9 1 4 1 5-1v-2l11-1 3-1 1 1h8l10 2 8-1 1-3 5 1 6-4 4 1 1-4 5-4 3-9 2-9 1-10 2-17 1-18 3-24z" fill="#44525B"/>
<path transform="translate(1315,545)" d="m0 0h1l1 31 2 78 1 27 2 65v9l2 16v21l3 84 3 59 3 12 3 4 2 5h6l6 2 1 3 5 1-2-4 7 1v2l9-2h4l7-5h2l-1 6 10-4 4-2 9 1 9 2 4-5 1-25h1v40l-1 98-1-2-5 1-3 9v2h-3l-3-4-3 1-1 2-5-2-3 3v2l-7 2-3 5h-4l-5 1h-3l-2-2h-2l-2 5-5 1-8-5-5-3-1-4v-4l-5-1-4-9-5-14-2-16-2-28-1-26-2-38-1-36-3-49-1-41-1-37-1-63-2-74z" fill="#44525B"/>
<path transform="translate(575,933)" d="m0 0 6 1 8 4 5 2 16 9 26 14 28 14 29 16 19 11 28 15 25 13 22 12 27 15 9 6v43l-6-2-16-8-25-13-19-11-46-25-22-13-9-5-10-4-17-10-12-6-15-9-26-14-29-16-11-6-8-3-2-4 15-6 12-5v-4l1-6z" fill="#A3AAAE"/>
<path transform="translate(334,556)" d="m0 0 2 1v101l-1 6-1 21-1 3v8l-1 11-1 18v12l-2 15-1 3-1 8-3 7-5 6-13 1h-13l-6-5-6-2-8-1-7-3h-3v-2h-12l-4-2-5 1-2-1-2 4h-2l-1 12-2 1-1-5-1-30v-77h1l1 22 1-15 5-21h2l3 3 6 2 6-1 6 3 2 2 1 2 11 6 2 1v-2h3v-2l4 1 3 2h7l7 1 9-1 3-3 5-2 4-8 4-40 2-17 3-34z" fill="#738692"/>
<path transform="translate(1086,922)" d="m0 0 2 1-5 8-7 9-7 11 4 2 7 1 1 1 8 1 2 2 5 1-5 5-13 5-12 7-5 1v2l-10 6-11 6-13 8-9 5-10 6-6 3-6 2v2l-8 4-16 9-10 5-7 4-18 10-11 6-45 27-21 12-28 14h-2v-43l9-6 18-10 21-12 16-8 16-9 9-5 10-6 11-6 24-14 4-3h3v-2l8-4h2v-2l6-3 8-5 7-3 12-6 9-5 12-7 6-3h2v-2l9-3v-2l14-7 17-9z" fill="#7B8385"/>
<path transform="translate(652,846)" d="m0 0 3 1-1 6 1 3 9 9 2 7 5 5 2 4 4 2 10 9 18 11 22 12 33 16 16 8 13 6 27 7 11 5 2 2 1 5 2 30 4-1 9 3 7 3 22 2 4 1 9 1 3 1 12 6-4 1h-3l3 2h6l7-3 7-1 2-1 2 1 1-2h7l-1 3-10 6-18 10-12 7-16 8-20 11-17 10-4-1-2-10-1-66-3-5-17-4-25-6-22-8-13-6-19-8-14-7-16-7-9-5-19-10-9-6-19-9-10-7-6-5-4-6-2-5-4-2-1-5v-7l30-18z" fill="#E7ECEE"/>
<path transform="translate(1314,657)" d="m0 0h1l1 150 2 47 2 90v25l1 14v14l1 18 1 29 1 17v13l1 7v27l1 50v33l-3 18-3 10-7 13-8 11h-2l-2 5-7 7-11 7-14 6-5 2-9 2-8 2-25 3h-29l-61 2h-19l-14 1-9-1-4 1h-12l-6-1-7 1-18-1h-23l-4 1-9-1h-163l-26-1h-110l-19 1h-42l-17 1h-73l-30-1h-32l-47-2-15-1-14-2-16-3-15-2-12-4-9-5-11-9-6-7-6-11-4-8-3-9-4-10-2-16-1-27 1-44 1-17 1-37 1-17 2-2 1 137 3 18-1 1 1 10 6 12 6 8 9 10 4 4v3h2l4 5 8 6 10 4 16 3 29 2h16l16 1h414l225 1 70-1 44-1 23-1 13-2 17-6 14-7 8-7 6-7 3-5 3-7 6-13 4-16 2-21v-120l-1-59v-15l-1-28v-61l-1-23-1-54z" fill="#2E393F"/>
<path transform="translate(1164,968)" d="m0 0h2v7l-4 8-4 2v2l-10 7-9 5-16 10-14 8-29 16-21 11-10 6-11 6-19 11-9 4-12 6-15 9-5 2-16 9-11 4h-3l-1 2-11 4-10 4-12 5-5 3h-3v2l-11 6-12 7-13 6h-3l-1 2-11 5-8 3-10 6h-2l-1 4-6 5-4 1-18-8-14-8-12-6-22-12-28-15-17-9-16-8-15-8-21-10-16-8-26-14-23-13-15-8-36-18-22-12-20-11-12-9-11-8-3-7 1-5 5 1 6 3v2l6 2 25 13 9 5 22 12 8 4v2l6 2 26 14 11 5 9 4 16 9 7 4 12 8 11 6 13 7 12 6v2l6 2 17 10 16 8 13 7v2l9 3 4 2v2l5 1 6 3v2l5 2 8 3v2l5 2 7 3v2l6 2 16 9 22 11 4-1 22-14 12-7 45-27 22-12 17-9 11-6 22-13 24-14 26-15 16-9 21-11 42-24 24-13 17-9z" fill="#E7ECEE"/>
<path transform="translate(594,746)" d="m0 0 5 2 32 17 17 8 17 10 4 3-5 1-1 3 3 1 4 6 1 9-2 7-6 9-1 3-2 2-5 6h-3l-1 3-6 4-6 5-5 1-1 3-18 12-1 2-5 2-12 6h-7l-6-3-3-4v-2l-3-1-4-11-2-16-1-16v-18l-1-3 2-8v-9l3-20 4-7 7-4 7-1z" fill="#A3AAAE"/>
<path transform="translate(334,805)" d="m0 0 2 1v48l-1 6-3 24-2 28-2 11-1 7-3 13-5 6-2 1-1 3-5 1-5 3-5-1-3 3-8 1-6-2-2 1v-2l-2 1h-6l-2-1-6 1h-7v2l-5 2-4-1-9-2v-2h-6l-1 14h-1l-1-13-1 307h-1v-402l1-32h1l1 52h1l3-7h5l5 4 13 3 3-1 10 3 6 4 10 1 17-2 5-3 8-4 4-5 2-4 2-11 2-7v-7l1-8 2-25z" fill="#546570"/>
<path transform="translate(1271,1243)" d="m0 0h3l-2 4-6 4-11 4-17 3-25 1-55 1h-25l-11 1h-11l-8 1h-54l-11-1-11 1-3-1h-21l-59-1h-242l-36 1-17 1-14-1h-32l-81-1h-46l-24-1h-18l-16-1-15-1-9-3-3-2v-2h861l15-5z" fill="#121417"/>
<path transform="translate(942,817)" d="m0 0 6 1 10 6 7 3v2l4 1 15 7v3l2 6-2 9-6 12-6 7-3 4h-2l-2 4h-2l-2 5-8 6-5 3-4 4-9 4-10 3-12 6-5 2-19 4-14 5-20 4-9 1-12-1-3-3-2-46v-18h1l2 25 2 5 11 3 16-2 8-4 3-1v-2l8-3 8-5 5-2 11-9 5-2 2-4 6-5 8-10 9-12 5-4z" fill="#8A9396"/>
<path transform="translate(990,593)" d="m0 0h13l9 3 5 2 4 2 9 2 8 4v2l6 1 9 4 13 8 5 3 5 6 2-1v42l-17 4-8 2-11 2h-39l-12-5-11-8-7-7-7-14-7-20-1-13 6 1 11 7 12 6-1-6-1-4 3 1-3-8-2-4 4 2 3 6-3-9 1-5 2-2-4-2z" fill="#A2AAAE"/>
<path transform="translate(1315,447)" d="m0 0h1l2 100 1 36 1 20 1 43 1 26 1 17 3 67 1 37 2 54 1 21 3 14 5 9 9 4h10l1-1 12-1 8-4 3-1 10-1 11 2 8 7 7 1 1-5 1-48h1v83l-1 25-5 6-9-2-9-1-4 2-10 3 1-6-6 4-3 3-1-2-5 2h-7v-2h-6l1 3-3 1-3-2v-3l-12-1-2-2-3-7-3-8-1-5-3-60-1-30-2-54v-20l-2-19-1-39-1-42-1-23-2-80-1-23z" fill="#54656F"/>
<path transform="translate(1312,565)" d="m0 0h1l1 11 1 241 1 56 1 29v54l1 37v17l1 62v107l-3 24-3 11-5 11-3 7-7 11-3 1-2 4-10 8-16 7-12 4-16 2-21 1-56 1-58 1-250-1h-392l-19-1h-14l-14-1-18-2-14-4-6-4-7-5v-2l-3-1v-2h-2l-1-3-5-5-11-12-6-10-3-7-1-11h3l5 14 8 11 7 7 8 6-3 1-4-2 1 3 4 2 5 5 13 7 5 3 12 4 10 1 26 1h12l28 2h20l41 1h194l75-1h92l32 1h47l15 1h24l23 1h38l11-1h26l11-1 40-1 33-1 28-1 11-1 16-3 10-3 6-4h3v-2l9-6h3v-2l6-5 5-8h2l1-4h2v-5l-2-1 3-9 3-7 2-5 2-13 1-2z" fill="#232A2E"/>
<path transform="translate(1315,373)" d="m0 0 2 4 3 25 1 23 2 43 3 71 2 58 1 24 1 16 2 17 3 5 2 6 4 2 1 5 2 1 1-3 8 1 7-2 1 2-1 4 4-2v-5l7-1 5-1 3-1 1-2 6-1 2 3 5-1 7 1 3 4h2v2l4 2 4 4 4 9 2-11h1v43l-1 20-1 4h-4l-4-8-8-5h-13l-20 4-6 2h-18l-3 1-8-7-4-7-1-18-1-14-2-39v-17l-3-78-2-44-2-68-3-49-1-9z" fill="#728591"/>
<path transform="translate(1118,628)" d="m0 0h1v306h-5l-1 4-7 9-1 2h-2l-3 9-5-5-10-4h-5l-2-4 4-5 3-5 4-2v-2l4-1 1-4 4-11 6-28-3-1-1-6 1-7-2-8-1-9-4-12-1-5-4-4v-18h-2v19l-2 4-2 7-1 2-3-1v-106l5-2 2-4 2-2 6 1 9 8 5 1 2 4v3l2 1-1 2 2 1 2 4 2 1v-32z" fill="#D2D8DB"/>
<path transform="translate(977,1028)" d="m0 0 5 1-1 5-5 5 1 4 3 3 3 5 5 2h8l7-3h5l-3 5-10 5h-5l-1 3h-3l-1 2-6 2-3 2-4 3-2 5-15 9-42 22-10 6-9-1-9 4-11 4-16 8-10 3-5-3v-3l-9-3-7-5 1-13 1-39h1v42l34-17 24-14 45-27 19-10 14-8 5-2z" fill="#F5FDFD"/>
<path transform="translate(1029,701)" d="m0 0 5 1 1 4-4 3h-2l-1 3-4 2-3 5-1 9-2 1-1 9-4 9-2 12v16l1 13 4 8 2 6 10 10 9 7 8 3 10-2 4-4 1-7 7-24 2-9v-9l2-12v-16l1-17 1-12 3-7h1v126l-3 10-7 8-5 2-9-1-11-4-11-6-5-3-5-4-3-1v-2l-6-3v-2l-5-2-10-7-4-2v-2l-4-2-7-8v-2h-2l-4-7-3-15 1-12v-15l-1-3 1-8-1-5 46-26z" fill="#8B9497"/>
<path transform="translate(335,658)" d="m0 0h1v72l-2 3-2 22-1 22-2 20-1 7-2 10-5 9-3 2-12 2-4-1-7 1-11-2-3-1-4 1-5-3v-2l-7 1-1 5-7-1 1-3-2-1-2-2-1 2v-2l-4 2-7 1-3-1-3 11-2 13h-1l-2-14v-87h1l1 33 1 1 1-9 1-3h2l2-5 5 1 4-1 2 2 12 1v2l3-1 7 3 10 2 7 3 3 3h17l9-1 6-8 2-8v-6l1-1 2-15v-13l1-20 1-16 1-5 1-19z" fill="#667782"/>
<path transform="translate(972,734)" d="m0 0 3 1v3l-1 9 1 2v17l-1 10 3 15 3 5v2h2l7 9 4 3v2l5 2 9 6 5 3v2l6 3v2l4 1 4 3 5 3 15 8 10 3 10-1 7-8 3-10 2 4v54l-5-1v-2l-6-2-19-10-4-3-5-4-3-4h-3l-2-3-7-3h-2l-2-3-5-2-11-7-11-8-7-3-7-5v-2l-4-1-10-8-8-6v-2l-4-2-8-7-1-3-5-5-7-9-13-7-1-4-4-2-2-2 16-8 16-9 12-6z" fill="#7B8385"/>
<path transform="translate(468,593)" d="m0 0 6 2 7 4 6 2v2l9 3 3 3 6 2v2l6 2 7 4v321h-1l-1-119-2-6-2-9v-21l-1-14v-10l-1-5v-11l-2-20-1-6 1-7-2-1v-17l-2-10 2-3v-9l-1-4-1 7-2-1-2-13 2-12v-9l-3 7-3 12-1 10-1 2-2 16-1 3v21l-4-5-2 5-3 3-2 7h-3l-2-7v-7l-2-9-3-3-1 177h-1z" fill="#9CAFBA"/>
<path transform="translate(560,726)" d="m0 0 5 2 11 7 18 10-1 4-10 2-5 5-3 8-2 19v7l-2 9 1 4v21l1 14 1 4 1 8 4 11 4 4 2 3 5 2h7l12-6 5-1 1-3 18-12 1-2h3l1-2 6-4 5-4 3-3 5-3 3-5h2l1-4 5-9 2-1-1-4 1-1-1-9-3-3-1-3-2-1 1-4h7l21 12 16 9 3 2-1 5-14 8-22 13-19 10-25 15-16 10-23 13-22 13-8 5h-1v-165l3-1v-4l-2-1z" fill="#8B9497"/>
<path transform="translate(1164,968)" d="m0 0h2v7l-4 8-4 2v2l-10 7-9 5-16 10-14 8-29 16-21 11-10 6-11 6-19 11-9 4-12 6-15 9-5 2-16 9-11 4h-3l-1 2-11 4-10 4-12 5-5 3h-3v2l-11 6-12 7-13 6h-3l-1 2-11 5-8 3-12 7-2-1 15-10 13-8 9-5 28-17 21-12 23-12 17-9 21-13 52-30 16-9 21-11 42-24 24-13 17-9z" fill="#C6CDCF"/>
<path transform="translate(517,610)" d="m0 0h8v6l-1 2-1 20-2 12v18l2 37 2 20 2 56 3 21 5 11 3 5 6-1 3-7 1-4v-6l3-6 3-19v-4l2-4-1-5-1-6v-9l1-3h2l1-2 1 38v73l-3 7-4 27-3 10-4 2-1 4-5 8h-3l-4-10-3-3-3-12-4-51-2-14-2 3-1-205-2-2 2-1z" fill="#F5FDFD"/>
<path transform="translate(1046,872)" d="m0 0 6 1 19 10-2 1-1 8-3 7-11 13-8 6-7 8-5 3h-2l-2 4-11 7-9 3-19 6-14 4-21 7-30 6-16 2-10 2-21 2-5 1-17 1h-7l-18-3-1-2v-9l3 2 10 1h24l33-5 23-4 14-5 19-5 13-6 9-4 15-8 14-8 5-4 13-10 7-6 9-11 4-4 1-4z" fill="#BBC2C6"/>
<path transform="translate(335,598)" d="m0 0h1v60l-1 6-1 21-1 3v8l-1 11-1 18v12l-2 15-1 3-1 8-3 7-5 6-13 1h-13l-6-5-6-2-8-1-7-3h-3v-2h-12l-4-2-5 1-2-1-2 4h-2l-1 12-2 1-1-5-1-30v-19h1l1 16 1-4v-2h2l-1-3h2l2-7 3-2 5 1 4 1h7l7 2 6 2 2 3 7 3 9 3 7 3 4-3 7 3h10l6-4 2-7 2-15 2-10v-11l1-12 1-39 1-31 2-8z" fill="#6B7F8A"/>
<path transform="translate(910,768)" d="m0 0 5 1 3 2 2 4 12 6 10 12v2l3 1 2 4 10 8v2l5 2 10 9 7 4 4 4 6 4 5 2 13 9 9 6 5 2 1 3 3-1 8 5 4 2 8 8-6-2-12-7-16-8-35-18-11-5-1-2-10-4-8-5-15-8-3-1v-2l-6-2-21-11h-5l-1 10-4 7-12 14-9 8-4 1v2l-5 4-9 3h-5l-3 1-2 4-5 5-5 3v-9l4-11 9-15 9-11 6-7h2l2-4 4-3h2v-2l21-14 11-7z" fill="#54656F"/>
<path transform="translate(1078,622)" d="m0 0h1l1 35 6-11 7-4h11l6 4 3 4 3 1 1-8h1v85l-1 32-4-2-4-10-2-4-5-1-5-4v-2l-9-2-4 5-5 2v-70l-4-1h3z" fill="#E7ECEF"/>
<path transform="translate(1120,737)" d="m0 0 2 1 4 16 7 42 2 18 3 17 3 32 3 41 2 12 4 21 8 17-6-1-27-14v-2l-5-1-1-1-1-18 1-120z" fill="#8B9497"/>
<path transform="translate(335,830)" d="m0 0h1v24l-1 6-3 24-2 28-2 11-1 7-3 13-5 6-2 1-1 3-5 1-5 3-5-1-3 3-8 1-6-2-2 1v-2l-2 1h-6l-2-1-6 1h-7v2l-5 2-4-1-9-2v-2h-6l-1 14h-1l-1-13v-35h1l1 4 1-9h4v3l7-1 4 1 3-2 6 1v2l5 1 11 3 3-4h14l7-2h6l4 1 1-4 9-3 5-9 3-12v-5l2-6 2-23 1-16 2-12z" fill="#505F69"/>
<path transform="translate(670,836)" d="m0 0 3 1 1 7 10 14 5 8 4 2v2h2l3 5 2 1v2l4 2 9 7 9 5 8 6 12 7 33 15 13 6 20 8 16 5 5 3 1 10v12h-1l-2-6-11-5-27-7-17-8-16-8-17-8-38-20-15-10-11-10-5-5v-2l-4-2-2-3-1-4-4-4-2-4-3-2-1-5 2-7z" fill="#D2D8DB"/>
<path transform="translate(958,612)" d="m0 0 6 1 11 7 10 5 6 2 12 6 9 3 4 2 19 10 19 9 15 8 3 1v2l6 1v2l-17 4-8 2-11 2h-39l-12-5-11-8-7-7-7-14-7-20z" fill="#6C7F8A"/>
<path transform="translate(1054,938)" d="m0 0h5l-2 4-2 6-4 4-3 5-9 7-5 2v2h-3l-1 3-11 6h-3v2l-5 3-5 4h-2v2l-10 7-15 9-9 4-1 2-6 2-3 3-7 4-17 8-4 1-6 3h-3v2l-9 4h-5v2l-12 5-9 3-12 2-8 1-6-1 3-5 21-11 14-7 13-8 6-3 10-6 11-6 24-14 4-3h3v-2l8-4h2v-2l6-3 8-5 7-3 12-6 9-5 12-7 6-3h2v-2l9-3v-2z" fill="#666F72"/>
<path transform="translate(1325,637)" d="m0 0 2 2v13l2 38 2 32 6 9 5 4 8-1h13l6-2 10-2 12-2h11l8 5 4 6v3h4l1-24h1v44l-1 11-2 2-4-1-6-8-8-3-13 1-7 3-10 3-14 2-3 1-9-1-9-3-2-4-3-17-1-24-2-42-1-37z" fill="#6A7E89"/>
<path transform="translate(942,817)" d="m0 0 6 1 10 6 7 3-2 1-3-1v10l-6 14-5 8h-2l-2 4-7 8-8 9-30 15-7 3-11 4-21 6-9 3h-10l-10-2-2-4-1-26v-18h1l2 25 2 5 11 3 16-2 8-4 3-1v-2l8-3 8-5 5-2 11-9 5-2 2-4 6-5 8-10 9-12 5-4z" fill="#7A8284"/>
<path transform="translate(830,992)" d="m0 0h2v2l4-1 9 3 7 3 22 2 4 1 9 1 3 1 12 6-4 1h-3l3 2h6l7-3 7-1 2-1 2 1 1-2h7l-1 3-10 6-18 10-12 7-16 8-20 11-17 10-4-1-2-10z" fill="#E7ECEE"/>
<path transform="translate(1320,688)" d="m0 0h1l3 59 2 60v10l1 17 1 30 2 42 3 12 7 8 8 1 5 1 6 1 4-1 5 1 10-4 5-1h17l7 3 2 2 6 1 1-2h2l1-23h1v22l-1 25-5 6-9-2-9-1-4 2-10 3 1-6-6 4-3 3-1-2-5 2h-7v-2h-6l1 3-3 1-3-2v-3l-12-1-2-2-3-7-3-8-1-5-3-60-1-30-2-54v-20l-2-19-1-39z" fill="#505F69"/>
<path transform="translate(1169,578)" d="m0 0h2l-1 149-1-4-5 1-4-4-7-18-2-8-2-14-2-36v-13l-3-13-5-17v-2l-3-1 4-3 23-13z" fill="#BCC3C7"/>
<path transform="translate(338,1201)" d="m0 0h3l5 14 8 11 7 7 8 6-3 1-4-2 1 3 4 2 5 5 13 7 5 3 12 4 10 1 26 1h12l28 2h20l41 1h194l75-1h92l32 1h47l15 1h24l23 1h12l5 1v1h-596l-19-1h-14l-14-1-18-2-14-4-6-4-7-5v-2l-3-1v-2h-2l-1-3-5-5-11-12-6-10-3-7z" fill="#242B2F"/>
<path transform="translate(977,1028)" d="m0 0 5 1-1 5-5 5 1 4 3 3 3 5 5 2h8l7-3h5l-3 5-10 5h-5l-1 3h-3l-1 2-6 2-3 2-4 3-2 5-5-1-11 3-12 5-20 7-3 1h-9l-2-1 2-5 3-5-1-3-2-1 1-5 7-9h2v-2h2v-2l-3-1 14-8 19-10 14-8 5-2z" fill="#EBFBFE"/>
<path transform="translate(976,978)" d="m0 0m-145 0 1 3 8 1 5 1h46l12-1h11l21-1 16 3h8l10-4 7-1 1 3-3 2h-3v2l-7 4-12 7-8 5-11 6-3 1v-2l-7 1-9 3-9 2-1 1h-6l-4-4h6l-11-5-2-1h-6l-3-1h-5v-1l-21-2-12-5-8-1-1-2z" fill="#D3D9DC"/>
<path transform="translate(339,180)" d="m0 0h987l20 3 17 5 16 8 12 9 12 14-1 2-14-15-7-6-8-3-1-2-17-6-5-2-13-2-10-2h-995l-4 1h-16v-2l7-1z" fill="#D6E8F3"/>
<path transform="translate(925,808)" d="m0 0 6 1 13 7-2 1-1 10-5 6-5 5-8 11-10 11-6 5-13 10-3 1-1 2h-2l-2 2h-3l-1 2-6 3h-4v2l-8 5-7 2-12 1-11-3-2-2-2-14v-9h1l2 7 15 3 9-2 4-3 7-3 11-8 4-5 5-4 9-9 5-4 1-2h2l2-4 5-4 3-5 5-6z" fill="#6E7A7F"/>
<path transform="translate(917,1047)" d="m0 0h8l3 2-3 7-16 9-16 10-24 14-27 14-10 5h-2v-43l9-6 11-6 2 1 2 4 10 2 12-1 16-4 7-3 11-3z" fill="#8B9497"/>
<path transform="translate(1027,524)" d="m0 0 5 2 7 4v2l4 1 12 6 3 2v2h3v2l5 2 10 6 7 3 11 7 11 8 4 5 3 4-2-7-1-6-4-2-9-7-4-4v-2h-2v-2l-4-2-11-6-2-4-2-1 4 1 10 4 12 7 4 6 3 5 12 11 7 10 2 4 3 2v6l-8 5h-5l-28-17-25-13-16-8-18-11-5-5-2-3 1-1-4-1-10-6-4-2-2-2 8-1 7 2-4-2v-2l4 1 1-2 9 5 14 8 5 3v2l5 1 2 2h3l3 3-1 2 3-3-5-4-17-10-8-4v-2l-5-2z" fill="#A2AAAE"/>
<path transform="translate(693,823)" d="m0 0 4 1 6 8 5 4 7 8 5 5v2l3 1 4 5 6 5 5 5 6 5v2l4 1 16 8 14 8 30 14 17 7 4 4 1 12v11h-1l-1-9-3-3-8-3-9-4-17-7-7-4-13-5-16-8-5-3-11-7-10-7-12-9-6-5-7-8-3-4v-2h-2l-3-5v-2h-2l-9-13-2-2z" fill="#BBC2C6"/>
<path transform="translate(937,754)" d="m0 0h3v9l6 8 2 6h2l4 9 8 10v2l4 2 6 8 3 2v2l6 2 1 3h2v2l5 2 10 9 9 4 8 5v2l6 2v2l12 6v2l5 2 5 4 15 7 10 4 2-5 2-3h2l1-3h1v27h-4v-2l-6-2-19-10-4-3-5-4-3-4h-3l-2-3-7-3h-2l-2-3-5-2-11-7-11-8-7-3-7-5v-2l-4-1-10-8-8-6v-2l-4-2-8-7-1-3-5-5-7-9-13-7-1-4-4-2-2-2 16-8z" fill="#6F7A7F"/>
<path transform="translate(1020 1e3)" d="m0 0h2l-1 5-4 7 1 5 5 4v2h17l6-2 16-7 13-5 3-1h5v2l-29 16-21 11-15 9-28 16-18 11-1-4v-2l7-3 3-2h4l1-3h3l1-2 7-2 8-4v-2l2-1-8 1-3 2h-8l-6-3-6-8-1-4 4-5 2-1v-4l-9 1 4-3 8-5 10-5h2v-2l6-3 9-5z" fill="#E5EEF1"/>
<path transform="translate(610,951)" d="m0 0 5 1 21 11 28 14 29 16 19 11 28 15 25 13 22 12 27 15 8 5v5l-3 1-17-9-10-4-1-2-4-1-12-5-7-3-15-8-6-2-19-9-11-6-4-3-7-3v-2l-6-2-8-3v-2l-6-2-8-5-9-6-9-5-4-3v-2h-3v-2l-7-2-2-1v-3l-4-1-14-9-10-7-3-2v-2h-2z" fill="#8C9598"/>
<path transform="translate(1191,970)" d="m0 0 1 2-6 7-7 4-8 9-10 7-5 5-8 7-11 9-9 7-8 4-12 5-18 10-14 7-16 6-9 6-17 8-20 8-14 5-21 7 3-3 19-9 14-8 12-6 14-8 10-6 11-6 27-14 13-8 14-8 10-5 14-9 24-15 6-5 14-7z" fill="#F6FDFD"/>
<path transform="translate(1086,922)" d="m0 0 2 1-5 8-7 9-7 11 4 2 7 1 1 1 8 1 2 2 5 1-5 5-13 5-12 7-5 1v2l-10 6-11 6-13 8-9 5-3 1-1-2-1 2-3-1-1-3 1-7 4-3h2v-2h2v-2l6-4 2-3 5-3 3-4h3l1-3 4-4 6-7 7-9 1-3 4-4 5-8 2-4z" fill="#80888C"/>
<path transform="translate(486,974)" d="m0 0 5 1 29 15 9 5 22 12 8 4v2l6 2 26 14 11 5 9 4 16 9 7 4 12 8 11 6 13 7 12 6v2l6 2 17 10 16 8 13 7v2l9 3 4 2v2l5 1 6 3v2l5 2 8 3v2l5 2 7 3v2l6 2 16 9 12 6 4 4-6-2-17-9-17-10-26-13v-2l-6-2-16-9-16-8-13-7-14-7v-2l-7-2-10-4-14-7-10-4-19-10-27-15-3-1v-2l-4-1-9-4v-2l-5-1-16-9-7-5-19-9v-2l-4-1-19-10v-2l-5-1-1-3-5-2-3-2v-2l-5-2-10-7z" fill="#C0C7CA"/>
<path transform="translate(231,786)" d="m0 0h1l1 24 1-1 2-10 2-5h3v3h5l3 2v2h11v2l3-1 4 3h7l2 4 15 4h10l9 1v-2l9 1v-2h2v-2h2l1-5 3-9 1-5h1v7l-1 7-2 10-5 9-3 2-12 2-4-1-7 1-11-2-3-1-4 1-5-3v-2l-7 1-1 5-7-1 1-3-2-1-2-2-1 2v-2l-4 2-7 1-3-1-3 11-2 13h-1l-2-14z" fill="#65737B"/>
<path transform="translate(950,821)" d="m0 0 14 5 1 2-5-1v10l-6 14-5 8h-2l-2 4-7 8-8 9-30 15-7 3-11 4-21 6-9 3h-10l-10-2-2-4-1-26v-18h1l2 41h21l18-5 7-3 10-6 14-5 11-6 8-6 7-6 4-4h2l2-7 8-13 6-12z" fill="#80888C"/>
<path transform="translate(1054,938)" d="m0 0h5l-2 4-2 6-4 4-3 5-9 7-5 2v2h-3l-1 3-11 6h-3v2l-5 3-5 4h-2v2l-10 7-15 9-9 4-1 2-6 2-3 3-7 4-17 8-4 1-6 3h-3v2l-9 4h-5v2l-12 5-9 3-12 2-8 1-6-1 3-5 21-11 6-3 5 2 2 1 1-2 10-1 8-4 7-2 7-4 5-2 5-4 7-2 8-5h4v-2l5-1v-2l6-3 14-8h2v-2l10-6 7-4h2v-2l6-4 11-6 2-2h3v-2h2v-2l7-4 1-3 6-1 2-7-4-2 9-3v-2z" fill="#6F7A7F"/>
<path transform="translate(972,734)" d="m0 0 3 1v3l-1 9 1 2v17l-1 10 3 15 3 5v2h2l7 9 4 3v2l5 2 9 6 5 3v2l6 3v2l4 1 4 3 5 3 15 8 10 3 10-1 7-8 3-10 2 4v54l-3-1h2l-1-35-7 6h-9l-9-3-6-3-7-3v-2l-4-1-2-1v-2l-5-2-9-6-11-6-11-7-16-13-4-5-3-3-7-11-3-11-2-16-3-5-2-2v-11z" fill="#80888C"/>
<path transform="translate(1312,565)" d="m0 0h1l1 11 1 348v257l-1 6h-2z" fill="#1D2327"/>
<path transform="translate(1120,801)" d="m0 0h2l3 9 3 31 2 32 2 51 1 7 8 14-6-1-10-5v-2l-5-1-1-1-1-18 1-107z" fill="#828A8E"/>
<path transform="translate(1150,975)" d="m0 0 4 1-11 7-7 6-12 8h-3v2l-17 10-13 8-19 10-16 8-15 8-14 8-17 10-13 5-10 4-14 9-7 4-9 6-26 12h-2l-1 3-9 3-16 8v-2l25-14 21-11 11-6 22-13 24-14 26-15 16-9 21-11 42-24 24-13z" fill="#A4ABAF"/>
<path transform="translate(1013,1069)" d="m0 0h2l-1 4-5 3-3 3-74 37-22 12-27 14-22 12-25 12-6-1-1-3 5-2 1-4 12-7 15-6 24-12 16-9 4-1v-2l11-5h2l1-2 10-3 13-6 11-4 10-4 15-9 7-3 12-7z" fill="#E6ECEF"/>
<path transform="translate(1100,539)" d="m0 0 4 2 26 14 18 10 16 8-2 3-7 2-1 3-8 3-16 9h-2l-1-6-4-4-7-11-8-8-7-6-4-8-6-4 3-2 8 4 7 1-9-9z" fill="#BBC2C6"/>
<path transform="translate(910,768)" d="m0 0 5 1 3 2 2 4 12 6 10 12v2l3 1 2 4 10 8v2l5 2 10 9 7 4 4 4 6 4 5 2 13 9 9 6 5 2 1 3 3-1 8 5 4 2 8 8-6-2-12-7-16-8-25-13v-2l-17-9-3-2v-2h-2v-2l-5-2-11-7-5-3-8-5v-2l-4-1-5-7-8-6-14-5-3-4-1-2-4-1 9-6z" fill="#646D70"/>
<path transform="translate(1178,832)" d="m0 0 4 1 3 4-1 6 2 5 4 5 2 11-2 5 1 11-4 9 2 6-1 7-6 16v10l-4 1-1-2-1-9-4-7v-69h2z" fill="#E6EFF3"/>
<path transform="translate(839,1059)" d="m0 0 2 1v4l9 6 5 3 19 3 8 2-4 4-5 3v2l-33 17-8 4h-2v-43z" fill="#A3AAAE"/>
<path transform="translate(1078,622)" d="m0 0h1l1 35 6-11 7-4h11l6 4 3 4 3 1 1-8h1v21l-1 21h-4l-6-9-2-2-7-1h-9l-3 1-2 5-5 2v-9l-4-1h3z" fill="#E5EEF2"/>
<path transform="translate(1329,788)" d="m0 0 2 4 4 13 6 3 4 1 16-1 6 1 3-1 1-4 7-1 5-3 4-1h11l10 4 6 8v2l4 1v9l-3 3h-3l-2-6h-3l-3-4-11 1-3-5-7 6-3-1v-2l-5 2h-6l-2 4h-14l-5 1-7-2-5-4h-5l-1-2-1-11z" fill="#65737B"/>
<path transform="translate(725,548)" d="m0 0v3l-9 6-4 5-9 6-15 9-11 6-16 10-5 3h-2v2l-13 6-8 4-6 5h-2v2l-10 6-11 6h-3l-1 2-14 8-6 5-4 10-1 16-2 3-2-2v-13h-2v-13l2-4 6-2v2l6-4v-2h2l2-4 5-4 6-2 1-4 4-4 7-2 4-2 3-1 2-2 8-3 11-8 8-3 8-5 12-7 7-2 9-7 6-1 2-4 14-9 2-1 1 2 4-1 2-4 6-4z" fill="#8B9497"/>
<path transform="translate(972,1016)" d="m0 0h3l1 4-2 3 1 2-1 4-12 6-7 4-18 10-12 6 2-6h-2v-2l-12 2-20 6-7 3-16 3h-7l-9-2-3-3 2-5 3 1 3 2 15 1 16-4 10-4 7-2 10-5 13-6 26-10 10-6z" fill="#80888C"/>
<path transform="translate(1104,1343)" d="m0 0h27l9 1 12 1 5 2-1 3-3 1-9-1v-2l-4 3v2l-7 1h-105l-3-3 2-5 4 1 1-1 26-2h33z" fill="#2E393F"/>
<path transform="translate(1164,968)" d="m0 0h2v7l-4 8-4 2v2l-10 7-9 5-16 10-14 8-29 16-21 11-10 6-11 6-19 11-9 4-12 6-15 9-5 2-16 9-11 4h-3l-1 2-11 4-10 4-12 5-5 3h-3v2l-11 6-12 7-13 6h-3l-1 2-11 5-2-1 3-3 9-4 5-3h2l1-3 7-3 17-9 16-8 5-2 27-12 12-4 16-8 16-9 5-1v-2l12-6 17-9h3v-2l22-12 8-5 30-15 7-4 4-4 14-7 11-6 7-5 11-6 7-6 8-7 3-3h2l1-4z" fill="#D3D9DC"/>
<path transform="translate(1006,634)" d="m0 0 7 3 15 7 44 22v2l6 1v2l-17 4-8 2-10-1-1-3-4-1-5-3v-5l-1 5-2-1 1-6-7-9-3-3v-2l-3-1-2-4-12-8z" fill="#748792"/>
<path transform="translate(919,805)" d="m0 0 7 1 2 2-3 1-4 9-7 8-3 5-5 4-1 2h-2l-2 4-5 5-5 4h-2l-2 4-5 4-5 6-12 8-7 3-5 2-7 1-13-3-2-4 20-1 16-8 9-7 7-8 17-17h2l2-4 4-7 4-4 5-8z" fill="#65737B"/>
<path transform="translate(964,635)" d="m0 0 5 2 3 2 5 1v2h2l1 5 3 1 1 5h2v2l6-1 6 4v2l3 1 2 5 5 2 4 4 6 2v2l5 1-1 2h-19l-12-5-11-8-7-7-7-14-2-5z" fill="#6F7A7F"/>
<path transform="translate(1087,708)" d="m0 0 4 1 7 4 2 7 8 6 3 7 3 12 3 5v10l-4-2-4-10-2-4-5-1-5-4v-2l-9-2-4 5-5 2v-18l3-3 4-12z" fill="#D5E8F3"/>
<path transform="translate(1151,977)" d="m0 0h2l-2 4-10 8-24 15-9 6-9 5-13 8-16 8-38 20-13 8-21 10-9 5-11 6-20 12-8 4-10 3-7 3-4-1 28-13 12-8 17-10 10-5 10-3 23-13 12-7 15-8 16-8 15-8 9-5 23-14h2v-2l11-6 5-4h2l1-3z" fill="#BCC3C7"/>
<path transform="translate(953,560)" d="m0 0 15 6 8 5 1 2h6l1-2h6l20 11 10 6 11 6 13 8 1 3-2 2-12-7-11-3-12-6-10-3-16-8-10-6-9-6-12-6z" fill="#A1AAAF"/>
<path transform="translate(486,974)" d="m0 0 5 1 18 9v3l18 10 25 14 4 1v2h2v2l6 2 6 4v2l4 1 14 8 13 6 5 2 22 12 26 14 19 10 9 5-3 1-17-8-10-5-19-9-9-6-7-3-11-7-6-2v-2l-4-1-9-4v-2l-5-1-16-9-7-5-19-9v-2l-4-1-19-10v-2l-5-1-1-3-5-2-3-2v-2l-5-2-10-7z" fill="#D2D8DB"/>
<path transform="translate(1312,375)" d="m0 0h1l1 16 1 39 1 211 1 31-2 1-1-16-1-81-1-11z" fill="#313C43"/>
<path transform="translate(339,180)" d="m0 0h231l15 1v2h-253l-4 1h-16v-2l7-1z" fill="#DCEEF6"/>
<path transform="translate(1120,834)" d="m0 0 2 1 3 14 1 16 1 49v14l4 9v4l-6-2v-2l-5-1-1-1z" fill="#7B8385"/>
<path transform="translate(1312,352)" d="m0 0 2 4 3 39 3 50 2 73 2 38 3 80h-2l-3-70-1-16-1-21-1-4-3-87-3-70-1-6z" fill="#6A7D88"/>
<path transform="translate(1114,934)" d="m0 0h5l6 3-3 1 1 6 2 7-3 3h-2l-2 4-3 1-2 4-8 5-8 1-2-5-3-2 6-3 2-4 2-7 3 1 2-5 6-7z" fill="#D4E7F2"/>
<path transform="translate(891,569)" d="m0 0 15 6 13 6v2l4 1 19 9 14 7 6 5 1 5 5 1 4 7-5-2-5-3-4-1-1 3-1-7-40-20-22-12-7-4z" fill="#A3AAAE"/>
<path transform="translate(515,851)" d="m0 0 2 1v89l-9 5-3-1 4-10 1-6-1-3 1-4v-8l1-9v-22l1-7v-11l1-7h2z" fill="#8B9497"/>
<path transform="translate(1180,845)" d="m0 0 2 1 2 5 1 9v26l-4 16h-4l-1-11-3-1v-26l6-18z" fill="#E8EDEF"/>
<path transform="translate(1086,922)" d="m0 0 2 1-5 8-7 9-7 11 4 2 7 1 1 1 8 1 2 2 5 1-5 5-2-1 1-3-24-1-2 2-7-3 3-9 6-11v-2h2l2-4 1-3z" fill="#A2A9AD"/>
<path transform="translate(1e3 1072)" d="m0 0m-1 1m-2 1h2l-2 4-14 8-5 2-16 9-11 4h-3l-1 2-11 4-10 4-12 5-5 3h-3v2l-11 6-12 7-13 6h-3l-1 2-11 5-2-1 3-3 9-4 5-3h2l1-3 7-3 17-9 16-8 5-2 27-12 12-4 16-8 16-9 5-1v-2z" fill="#D3D9DC"/>
<path transform="translate(1187,180)" d="m0 0h139l20 3 17 5 16 8 12 9 12 14-1 2-14-15-7-6-8-3-1-2-17-6-5-2-13-2-10-2h-81l-18-1-41-1z" fill="#D8EBF4"/>
<path transform="translate(691,799)" d="m0 0 5 1 15 9-1 5-14 8-17 10h-3l2-6 1-2h2l2-4 3-3h2l3-10-1-6z" fill="#81898D"/>
<path transform="translate(1315,447)" d="m0 0h1l2 100 1 36 1 20 1 43-1 25h-1l-1-23-2-80-1-23z" fill="#52626C"/>
<path transform="translate(712,1349)" d="m0 0h33l39 2 1 3h-113l3-3 9-1 1 1h10l9-1h7z" fill="#2E393F"/>
<path transform="translate(831,1021)" d="m0 0 4 1 2 4 8 7 6 5h8l13-3 1-1h7l-5 4-10 4-6 1-12 4-7-1-6-5-3-6z" fill="#E6EFF3"/>
<path transform="translate(830,1035)" d="m0 0h2l4 7 7 4 7-1 12-4h6l-1 3-26 15-5 3-4-1-2-10z" fill="#E7ECEE"/>
<path transform="translate(561,855)" d="m0 0h1l1 9h2l4 12 2 5 1 3h5l4 2v3l-15 9-6 3v-23z" fill="#80888C"/>
<path transform="translate(575,933)" d="m0 0 6 1 8 4 5 2-4 2-1 8-1 3-14 4-9 2-11 4-4-2v-2l15-6 12-5v-4l1-6z" fill="#BEC5C9"/>
<path transform="translate(635,856)" d="m0 0 4 1-1 5 2 5 7 10 7 8 10 10 16 9 11 7 18 11 2 3-5-2-10-6-14-8-16-10-10-6-10-8-8-10-5-5-2-4v-7z" fill="#E5EEF2"/>
<path transform="translate(614,869)" d="m0 0 2 1-2 3v7l7 8 5 6 5 5 6 5 17 9-2 1-16-7-16-8-8-5-2-5-4-4-1-11z" fill="#F5FDFD"/>
<path transform="translate(915,766)" d="m0 0 6 2 4 6 9 4 7 8 1 3 5 5 7 6v2l4 2 8 7 10 10 5 3 1 2 3 1v2l5 2 3 3-6-1-8-6v-2l-4-1-10-8-8-6v-2l-4-2-8-7-1-3-5-5-7-9-13-7-1-4-4-2-2-2z" fill="#66747C"/>
<path transform="translate(1320,647)" d="m0 0h1l1 25 1 17 3 67 1 37 2 54 1 20-2 1-1-4-1-32-1-25-2-60-3-59-1-11z" fill="#54656F"/>
<path transform="translate(507,985)" d="m0 0 5 1 12 6 8 5 16 8 11 6v2l6 2 26 14 11 5 6 3v2l5 2 2 2-5-1-33-16-6-4-7-3-6-3v-2h-2v-2l-6-1-27-15-15-9z" fill="#BEC5C9"/>
<path transform="translate(869,797)" d="m0 0h2v6l-3 4h-2l-2 4-6 6h-2l-2 6h-2l-2 4-5 5-5 8-5 3 1-7 9-15 9-11 6-7z" fill="#53626B"/>
<path transform="translate(1069,930)" d="m0 0 4 1-5 5h-2l1 3-7 12-2 7 6 2 3-2 23 2-2 2-6 2h-10l-8 4-9 1-4-3v-7l5-8 2-5 9-15z" fill="#8B9497"/>
<path transform="translate(335,598)" d="m0 0h1v60l-1 6-1 21-3 3-1-3 1-42 1-31 2-8z" fill="#6A7E89"/>
<path transform="translate(567,928)" d="m0 0 5 1 6 3-2 2 3 5-1 5v4l-7 4-6 2-12 5h-3l1 3-6-2v-3l17-9 6-3 2-3-3-5z" fill="#E7EDEF"/>
<path transform="translate(581,1030)" d="m0 0 20 9 5 2 22 12 26 14 19 10 9 5-3 1-17-8-10-5-19-9-9-6-7-3-11-7-6-2v-2l-4-1-9-4v-2l-5-1z" fill="#D3D9DC"/>
<path transform="translate(938,815)" d="m0 0 6 1-2 1-1 10-5 6-5 5-8 11-10 11-6 5-13 10-3 1-1 2h-2l-2 2h-3l-1 2-6 3-4-1 20-11 3-3 6-4 10-8 7-9 7-10 6-9 5-8z" fill="#6A7E89"/>
<path transform="translate(1288,1350)" d="m0 0h10l21 3v1l-9 1h-73l-14-1 4-2h10l5-1 4 1 23-1z" fill="#2E393F"/>
<path transform="translate(339,180)" d="m0 0h118l-1 2-124 1-4 1h-16v-2l7-1z" fill="#DAEBF4"/>
<path transform="translate(517,610)" d="m0 0h8v6l-1 2-1 20-2 12h-2v67h-1l-1-98-2-2 2-1z" fill="#F1FCFD"/>
<path transform="translate(1145,950)" d="m0 0 5 1 3 3 3 5 2 3v3h-2l-4 10-15 8h-2l4-8h2v-2h2l2-4 2-5-1-7-2-6z" fill="#E4EDF1"/>
<path transform="translate(834,993)" d="m0 0 9 2 9 4 22 2 4 1 9 1 3 1 12 6-4 1h-3l3 3-3 1-3-1v-2l-5-2-19-5-19-3-9-4-6-4z" fill="#D4E7F2"/>
<path transform="translate(721,1102)" d="m0 0 5 1 8 4v2l9 3 4 2v2l5 1 6 3v2l5 2 8 3v2l5 2 7 3v2l6 2 16 9 12 6 4 4-6-2-17-9-17-10-26-13v-2l-6-2-16-9-12-6z" fill="#B3BABE"/>
<path transform="translate(912,1113)" d="m0 0 2 1v2l-5 3h-3v2l-11 6-12 7-13 6h-3l-1 2-11 5-2-1 3-3 9-4 5-3h2l1-3 7-3 17-9z" fill="#D2D8DB"/>
<path transform="translate(1022,1042)" d="m0 0 5 1-5 4-27 15-15 9-9 5v-6l7-3 3-2h4l1-3h3l1-2 7-2 8-4v-2l4-4h3v-2h3v-2z" fill="#E3E9EB"/>
<path transform="translate(975,995)" d="m0 0 3 1-9 6h-3v2l-5 1v2l-7 3-7 4-6 2-5 4-10 4-3 2-7 2-6 3-3-1 11-6 8-3 1-2 12-5 13-7h3v-2l6-3h2v-2z" fill="#66747C"/>
<path transform="translate(828,395)" d="m0 0h1v35l-5 2v-35z" fill="#F6FEFE"/>
<path transform="translate(903,1121)" d="m0 0 3 1h-2v2l-25 15-14 7-16 6-7 1 5-4 15-6 24-12 16-9z" fill="#D4E7F2"/>
<path transform="translate(900,1115)" d="m0 0h2v2l-14 8-4 4-7 4-4 1-4 4-7 4-8 2-1 3-18 10-2-1 15-10 13-8 9-5 28-17z" fill="#C1C8CB"/>
<path transform="translate(575,933)" d="m0 0 6 1-1 2 3 2v12l-20 8-12 4-1-3 15-6 12-5v-4l1-6z" fill="#D3D9DC"/>
<path transform="translate(1312,375)" d="m0 0h1l1 16 1 39v63h-1l-1-56-1-6z" fill="#3E4B54"/>
<path transform="translate(1089,920)" d="m0 0h4l-1 4-3 5-4 4h-2l-2 4-6 8-1 6 16 4 8 3-1 3-6-2-2-2-8-1-7-2-6-2 6-11 6-7 6-9v-3z" fill="#BCC3C7"/>
<path transform="translate(1315,373)" d="m0 0 2 4 3 25 1 23v28h-1l-1-10-3-48-1-9z" fill="#738692"/>
<path transform="translate(561,876)" d="m0 0h1l2 8 5 3 2 1v2l4 2-14 9h-1v-23z" fill="#7F878A"/>
<path transform="translate(559,726)" d="m0 0 4 4 1 5-2 2-2-1v126h-1z" fill="#CDD3D6"/>
<path transform="translate(334,805)" d="m0 0 2 1v24l-1 1-2 14-1 9h-2l-1-7 1-8 2-25z" fill="#54656F"/>
<path transform="translate(568,1021)" d="m0 0 4 1 15 8 23 11 23 13 8 5-2 1-24-13-9-5-12-5-19-10-5-3v-2z" fill="#C7CED0"/>
<path transform="translate(301,184)" d="m0 0 3 1-8 4-7 3-8 4-7 2-6 4-3 1v2l-6 5-7 8-3 2 2-4 9-10 10-9 16-8 11-4z" fill="#D7E9F3"/>
<path transform="translate(1320,647)" d="m0 0h1l1 25 1 17 1 21v28h-1l-2-33-1-17-1-11z" fill="#54656F"/>
<path transform="translate(958,612)" d="m0 0 6 1 11 7 10 5-3 1-2-1h-9l-2-1v-2l-8-1-2 4z" fill="#80898D"/>
<path transform="translate(507,985)" d="m0 0 5 1 12 6 8 5 16 8 3 3h-2l-1 2-25-14-15-9z" fill="#C0C7CA"/>
<path transform="translate(653,1015)" d="m0 0h5l2 2 1 2h3v2l4-1v2l6 2 4 3 4 1 2 1v2l3-1 5 4 3 1v2l-6-1-9-5-10-4-17-10z" fill="#959DA0"/>
<path transform="translate(1310,1186)" d="m0 0h1v9h1v8l-4 12-3 5-4 1-1-3 5-10 3-9z" fill="#2F353A"/>
<path transform="translate(335,830)" d="m0 0h1v24l-1 6-2 13-2 2-1-4 1-17 2-15 1-8z" fill="#4F5E68"/>
<path transform="translate(829,1066)" d="m0 0h1v42l20-10 3 1-9 8-7 3h-4l-4-1z" fill="#F1F4F5"/>
<path transform="translate(1e3 528)" d="m0 0h7l3 2 6 2 6 3v2l4 2h-3l-5-3-1 4-4-1-10-6-4-2-2-2z" fill="#A1AAB0"/>
<path transform="translate(983,571)" d="m0 0h7l18 10 1 3-13-3-4-3-8-3z" fill="#8E999E"/>
<path transform="translate(1317,458)" d="m0 0h2l2 27v37l-2 3-2-55z" fill="#667781"/>
<path transform="translate(699,806)" d="m0 0 9 1 3 2-1 5-7 4-4-1-1-9z" fill="#7D8688"/>
<path transform="translate(1085,1035)" d="m0 0 2 1-13 8-24 13-9 5-3-1 13-8 11-6z" fill="#FDFDFD"/>
<path transform="translate(998,1057)" d="m0 0m-1 1v3l-25 15-1-4v-2l7-3 3-2h4l1-3h3l1-2z" fill="#E4EAEC"/>
<path transform="translate(769,1127)" d="m0 0h2v2l5 2 7 3v2l6 2 16 9 12 6 4 4-6-2-17-9-17-10-13-6z" fill="#BFC6CA"/>
<path transform="translate(1029,961)" d="m0 0h2v2h-2v2l-7 4-6 4h-3l-1 2-5 2v2l-9 5-6 4h-2v-2l4-3h2v-2l6-3h2v-2h3v-2l6-3 7-4h3l1-3z" fill="#66747C"/>
<path transform="translate(869,885)" d="m0 0h3v2l-8 5-7 2-12 1-9-2v-1l20-2z" fill="#6B7F89"/>
<path transform="translate(1211,784)" d="m0 0 3 1 7 17 4 16 3 13v7l-2-4-6-25-3-10-6-12z" fill="#F6FEFE"/>
<path transform="translate(1318,614)" d="m0 0h1l1 14 1 10-1 33h-1l-1-23z" fill="#505F69"/>
<path transform="translate(854,1155)" d="m0 0 2 1-16 8-5 2-5-1-1-3 8-4 6 1 9-3z" fill="#E6EEF2"/>
<path transform="translate(670,899)" d="m0 0 10 5 11 7 18 11 2 3-5-2-10-6-14-8-12-8z" fill="#E6EFF3"/>
<path transform="translate(938,1094)" d="m0 0 2 1-5 4-6 2-1 3-9 3-16 8v-2l25-14z" fill="#B4BABE"/>
<path transform="translate(906,862)" d="m0 0m-1 1m-1 1v3l-11 9h-2l-1 2h-2l-2 2h-3l-1 2-6 3-4-1 20-11 3-3 6-4z" fill="#6B7F8A"/>
<path transform="translate(828,395)" d="m0 0h1v15l-5 2v-15z" fill="#FDFDFD"/>
<path transform="translate(319,181)" d="m0 0h46v1l-33 1-4 1h-16v-2z" fill="#D5E8F3"/>
<path transform="translate(557,742)" d="m0 0h1v25l-2-4-2-7v-9l1-3h2z" fill="#F6FEFE"/>
<path transform="translate(579,935)" d="m0 0 6 1 3 2-2 1v7l-2 5-10 4-3-1 10-4h2l-1-6v-6z" fill="#C7CED0"/>
<path transform="translate(367,1352)" d="m0 0h26l4 2-3 1h-15l-18-1v-1z" fill="#2E393F"/>
<path transform="translate(1315,509)" d="m0 0h1v31h2l-1 28h-1l-1-23z" fill="#4E5D67"/>
<path transform="translate(994,833)" d="m0 0 1 2 4 1v2l5 1 8 6 8 5-4 1-9-6-14-10z" fill="#66747C"/>
<path transform="translate(1127,593)" d="m0 0 2 1-5 4-1 5 2 1-1 1h-6l-3-4v-2l7-3z" fill="#F0F7F8"/>
<path transform="translate(698,1038)" d="m0 0 14 7v2l5 2 5 3-3 1-20-11z" fill="#969EA1"/>
<path transform="translate(1318,583)" d="m0 0h1l1 20v25h-1l-1-14-1-6z" fill="#53646E"/>
<path transform="translate(911,583)" d="m0 0 5 2 19 9 7 4-4 1-22-11-5-3z" fill="#99A1A5"/>
<path transform="translate(1320,647)" d="m0 0h1l1 25 1 11-3 3-1-9z" fill="#53646E"/>
<path transform="translate(543,708)" d="m0 0 2 1-2 2v4l16 9-4 1-9-5-7-6 1-4z" fill="#F6FEFE"/>
<path transform="translate(1e3 528)" d="m0 0h7l6 3-3 1v2l2 1-5 1-6-5-4-2z" fill="#A1AAAF"/>
<path transform="translate(965,986)" d="m0 0 3 1-5 4-11 6-6 4h-2v-3l11-6z" fill="#DBE0E3"/>
<path transform="translate(561,885)" d="m0 0h1l1 5 5 2v5l-5 3h-2z" fill="#6E7E86"/>
<path transform="translate(827,484)" d="m0 0 2 1v14l-3-1-2 3v-8z" fill="#F6FEFE"/>
<path transform="translate(943,1103)" d="m0 0 3 1-10 5-17 7-2-2h2l1-2 10-3z" fill="#D5E8F3"/>
<path transform="translate(559,726)" d="m0 0 4 4 1 5-2 2-2-1v22h-1z" fill="#ADBAC1"/>
<path transform="translate(892,1030)" d="m0 0 5 2 2 1 1-2h6l-2 2-18 4v-3l4-3z" fill="#69767D"/>
<path transform="translate(1117,728)" d="m0 0h1v36l-1 2h-2l-1-7 3 1z" fill="#D3DBDF"/>
<path transform="translate(1054,559)" d="m0 0 4 2 2 2 1 2 6 2 3 2v2l-6-2-12-6z" fill="#9DB0BA"/>
<path transform="translate(1209,945)" d="m0 0 1 3-6 9-5 9-4 3-2-1 8-10z" fill="#F6FEFE"/>
<path transform="translate(707,1094)" d="m0 0 4 1 12 6-2 1-1 2-15-8z" fill="#C3CACD"/>
<path transform="translate(851,1144)" d="m0 0 3 1-4 4-11 6-6 2 4-4z" fill="#C1C8CB"/>
<path transform="translate(507,985)" d="m0 0 5 1 12 6-1 3-5-2-10-6z" fill="#C7CED0"/>
<path transform="translate(822,387)" d="m0 0h2l1 5 3 1 1-5 2 1v16l-2 1-1-9h-5z" fill="#ECF7F9"/>
<path transform="translate(721,1102)" d="m0 0 5 1 8 4v2l6 2v3l-19-10z" fill="#B0B8BD"/>
<path transform="translate(992,970)" d="m0 0h2v2l-10 6h-3v2l-4 1v-3z" fill="#CBD1D5"/>
<path transform="translate(1384,200)" d="m0 0 8 6 11 13-1 2-14-15-4-4z" fill="#DCEEF6"/>
<path transform="translate(900,1115)" d="m0 0h2v2l-21 12-1-2z" fill="#BDC4C8"/>
<path transform="translate(921,1103)" d="m0 0 3 1-16 9-5 2v-2z" fill="#ABB2B6"/>
<path transform="translate(968,828)" d="m0 0 4 1 16 8-4 1-16-8z" fill="#58676F"/>
<path transform="translate(999,671)" d="m0 0 3 1v2l5 1 6 2v1h-12l-3-3z" fill="#667882"/>
<path transform="translate(769,1127)" d="m0 0h2v2l5 2 7 3v2l6 2-2 2-9-5-10-5z" fill="#BEC5C8"/>
<path transform="translate(989,839)" d="m0 0 5 1 17 9-4 1-18-10z" fill="#5C6971"/>
<path transform="translate(1053,657)" d="m0 0 11 5-2 1-1 3-3-3-2 2-1-2 1-3h-2l-1 2-1-3z" fill="#81898D"/>
<path transform="translate(549,1008)" d="m0 0 6 1 4 2v2h2v2l-5-1v-2l-6-1z" fill="#B9C0C3"/>
<path transform="translate(1029,860)" d="m0 0h7l9 9-6-2-10-6z" fill="#5E6B73"/>
<path transform="translate(984,1084)" d="m0 0 3 1-1 4-4 2-3-1-2-2 2-2z" fill="#E1EBF0"/>
<path transform="translate(600,1035)" d="m0 0 6 1 2 1v2l5 2 2 2-5-1-10-5z" fill="#B1B8BC"/>
<path transform="translate(903,1121)" d="m0 0 3 1h-2v2l-12 7-2-1 5-4z" fill="#D5E8F3"/>
<path transform="translate(1126,983)" d="m0 0 5 2-4 3-6 3v-3z" fill="#E1EAEE"/>
<path transform="translate(958,612)" d="m0 0 6 1 8 5-3 1-5-3-5-1-1 4z" fill="#8C9598"/>
<path transform="translate(1044,1350)" d="m0 0h2v4h-17l2-2h6 3z" fill="#364249"/>
<path transform="translate(821,1156)" d="m0 0 9 2 5-1-1 3-5 2v-2l-6-1-2-1z" fill="#E0E7EA"/>
<path transform="translate(865,1136)" d="m0 0 3 1-6 5-9 3v-2z" fill="#B1B8BB"/>
<path transform="translate(902,1116)" d="m0 0m-2 1h2v2l-10 6-6 2 5-5z" fill="#C7CED0"/>
<path transform="translate(740,1111)" d="m0 0 5 2 2 1v2l5 1 2 2-3 1-10-6z" fill="#B8BFC2"/>
<path transform="translate(1076,876)" d="m0 0h1v10h-4v-2l-3-1 4-3z" fill="#69757C"/>
<path transform="translate(1024,854)" d="m0 0 8 4 1 3h-5l-4-3-1-3z" fill="#646E73"/>
<path transform="translate(806,1148)" d="m0 0 5 2 10 6-2 1-14-7z" fill="#CCD3D5"/>
<path transform="translate(502,679)" d="m0 0 2 3-1 8h-2l-1-2v-8z" fill="#9AAEB9"/>
<path transform="translate(1372,193)" d="m0 0 5 2 7 5h-3l-8-3z" fill="#D6E9F3"/>
<path transform="translate(686,1030)" d="m0 0 7 4 2 1v2l-6-1-4-2z" fill="#979FA2"/>
<path transform="translate(894,1010)" d="m0 0 11 1-1 3h-6z" fill="#D3DADE"/>
<path transform="translate(1018,531)" d="m0 0 5 2 4 2v2l4 2h-3l-6-4-4-1-3-2z" fill="#9AADB8"/>
<path transform="translate(989,672)" d="m0 0h9v3l3 1-4 1-8-4z" fill="#727F86"/>
<path transform="translate(1132,599)" d="m0 0h2v6l-2 2v-2l-5-2z" fill="#A3B3BC"/>
<path transform="translate(1113,580)" d="m0 0 4 2 2 5-2 2-4-4z" fill="#9BADB7"/>
<path transform="translate(987,988)" d="m0 0 3 1h-2v2l-8 4h-2v-2z" fill="#66747C"/>
</svg>
